# xmcd
#
# Track frame offsets:
#	150
#	15328
#	30225
#	46724
#	61807
#	72420
#	87973
#	100889
#	116286
#	132430
#	148594
#
# Disc length: 2202 seconds
#
# Revision: 0
# Processed by: cddbd v1.5.2PL0 Copyright (c) Steve Scherf et al.
# Submitted via: EasyCDDAExtractor 16.0.1.1
#
DISCID=8408980b
DTITLE=Dime Box - Five And Dime Waltz
DYEAR=2008
DGENRE=Country
TTITLE0=Live A Little
TTITLE1=Betsy
TTITLE2=High Road
TTITLE3=Mama
TTITLE4=Bone To Pick
TTITLE5=Somehow Somewhere
TTITLE6=Cotton Pickin'
TTITLE7=Do I Ever Cross Your Mind
TTITLE8=Five and Dime Waltz
TTITLE9=Nobody
TTITLE10=Up To Here
EXTD=
EXTT0=
EXTT1=
EXTT2=
EXTT3=
EXTT4=
EXTT5=
EXTT6=
EXTT7=
EXTT8=
EXTT9=
EXTT10=
PLAYORDER=
